{"glyphs":{":":{"x_min":0,"x_max":278,"ha":278,"o":"m 76 0 l 202 0 l 202 134 l 76 134 z m 76 370 l 202 370 l 202 505 l 76 505 z"},"$":{"x_min":0,"x_max":556,"ha":556,"o":"m 24 215 b 26 146 37 96 79 57 b 94 43 149 -5 244 -2 l 244 -102 l 297 -102 l 297 -2 b 333 0 386 4 438 41 b 477 69 523 122 523 202 b 523 345 416 379 304 407 l 304 585 b 348 580 379 567 382 493 l 516 493 b 515 526 514 582 466 630 b 419 677 359 686 306 690 l 306 772 l 251 772 l 251 688 b 214 684 146 679 89 617 b 46 570 38 521 38 485 b 38 350 138 311 245 281 l 245 104 b 224 104 157 115 160 215 z m 250 422 b 211 434 174 448 174 505 b 174 547 198 580 250 583 z m 299 270 b 357 254 380 229 380 187 b 380 134 340 106 299 102 z"},"?":{"x_min":0,"x_max":500,"ha":500,"o":"m 256 162 l 256 243 b 256 276 263 291 316 339 l 373 390 b 384 400 395 410 425 453 b 451 491 453 530 453 549 b 453 683 333 736 215 736 b 135 736 84 726 46 716 l 46 612 b 101 627 133 636 179 636 b 291 636 299 561 299 537 b 299 487 263 437 223 392 l 179 343 b 142 301 142 277 142 255 l 142 162 z m 139 0 l 259 0 l 259 120 l 139 120 z"},"<":{"x_min":0,"x_max":584,"ha":584,"o":"m 26 200 l 558 -7 l 558 134 l 186 267 l 558 400 l 558 540 l 26 334 z"},"'":{"x_min":0,"x_max":238,"ha":238,"o":"m 78 449 l 157 449 l 184 697 l 51 697 z"},"=":{"x_min":0,"x_max":584,"ha":584,"o":"m 26 318 l 558 318 l 558 447 l 26 447 z m 26 86 l 558 86 l 558 215 l 26 215 z"},"a":{"x_min":0,"x_max":556,"ha":556,"o":"m 502 0 b 493 42 490 85 490 128 l 489 331 b 489 354 488 414 454 455 b 404 513 316 520 274 520 b 226 520 167 512 121 479 b 68 441 65 387 64 360 l 209 360 b 209 372 209 388 220 405 b 233 424 255 433 276 433 b 290 433 329 428 342 391 b 348 373 349 357 349 324 b 300 324 211 324 149 296 b 56 253 42 179 42 139 b 42 99 56 58 86 28 b 106 9 139 -12 212 -12 b 240 -12 307 -12 363 69 b 363 54 363 31 368 0 z m 349 238 b 349 184 347 145 321 113 b 307 97 285 84 258 84 b 209 84 186 122 186 156 b 186 216 254 246 349 238 z"},"L":{"x_min":0,"x_max":556,"ha":556,"o":"m 69 0 l 537 0 l 537 123 l 227 123 l 227 722 l 69 722 z"},"3":{"x_min":0,"x_max":556,"ha":556,"o":"m 22 190 b 22 162 24 83 86 32 b 131 -4 204 -15 254 -15 b 399 -15 507 73 507 191 b 507 224 499 275 450 316 b 418 343 389 352 367 359 b 398 368 501 400 501 517 b 501 593 444 707 266 707 b 192 707 118 686 72 630 b 37 587 34 543 31 512 l 184 512 b 184 570 226 599 269 599 b 314 599 355 571 355 516 b 355 416 252 414 182 412 l 182 295 b 255 295 354 295 354 192 b 354 138 320 97 264 97 b 181 97 175 168 174 190 z"},";":{"x_min":0,"x_max":278,"ha":278,"o":"m 80 370 l 206 370 l 206 505 l 80 505 z m 87 133 l 13 -113 l 116 -113 l 235 133 z"},"J":{"x_min":0,"x_max":556,"ha":556,"o":"m 9 234 b 10 197 12 134 47 81 b 93 9 158 -7 236 -7 b 306 -7 348 7 376 24 b 467 80 488 168 488 279 l 488 723 l 331 723 l 331 280 b 331 242 331 197 325 167 b 320 148 306 106 246 106 b 182 106 163 156 161 234 z"},"V":{"x_min":0,"x_max":722,"ha":722,"o":"m 12 720 l 278 0 l 447 0 l 713 720 l 560 720 l 370 153 l 181 720 z"},"\"":{"x_min":0,"x_max":474,"ha":474,"o":"m 73 697 l 100 449 l 179 449 l 206 697 z m 265 697 l 292 449 l 371 449 l 397 697 z"},"7":{"x_min":0,"x_max":556,"ha":556,"o":"m 37 581 l 358 581 l 103 0 l 270 0 l 510 573 l 510 697 l 37 697 z"},"S":{"x_min":0,"x_max":667,"ha":667,"o":"m 35 231 b 36 161 38 -17 315 -17 b 515 -17 623 88 623 218 b 623 359 500 393 375 423 b 271 449 218 461 218 528 b 218 587 265 626 337 626 b 444 626 452 541 454 516 l 603 516 b 603 540 603 598 562 650 b 508 718 419 735 344 735 b 143 735 58 630 58 511 b 58 386 152 335 324 292 b 416 270 461 259 461 195 b 461 134 408 94 324 94 b 191 94 193 197 193 231 z"},"}":{"x_min":0,"x_max":333,"ha":333,"o":"m 230 93 b 230 144 233 209 348 228 l 348 314 b 333 316 287 325 262 349 b 238 373 230 403 230 449 l 230 484 b 230 597 222 711 -15 723 l -15 641 b 96 632 96 552 96 490 l 96 454 b 96 379 111 351 135 324 b 175 278 219 274 254 271 b 222 267 174 262 137 223 b 98 183 96 128 96 88 l 96 51 b 96 -11 96 -93 -15 -99 l -15 -181 b 226 -169 230 -52 230 58 z"},"Z":{"x_min":0,"x_max":611,"ha":611,"o":"m 27 0 l 581 0 l 581 119 l 196 113 l 573 583 l 573 720 l 50 720 l 50 602 l 405 605 l 27 132 z"},"x":{"x_min":0,"x_max":556,"ha":556,"o":"m 16 505 l 178 271 l 9 0 l 164 0 l 267 185 l 369 0 l 544 0 l 375 259 l 539 505 l 385 505 l 286 340 l 191 505 z"},")":{"x_min":0,"x_max":333,"ha":333,"o":"m 169 -123 b 225 21 271 170 271 324 b 271 473 227 619 170 757 l 61 757 b 120 552 148 453 148 318 b 148 139 93 -23 60 -123 z"},"&":{"x_min":0,"x_max":778,"ha":778,"o":"m 559 449 b 559 372 558 327 530 250 l 384 397 b 422 418 524 473 524 584 b 524 636 495 742 308 742 b 111 742 87 621 87 578 b 87 496 150 445 174 425 b 149 409 112 387 75 341 b 31 286 23 234 23 199 b 23 60 139 -19 296 -19 b 418 -19 484 30 530 65 l 586 -2 l 773 -2 l 626 150 b 686 245 707 328 707 449 z m 307 475 b 297 483 235 537 235 582 b 235 620 264 646 308 646 b 352 646 380 619 380 580 b 380 532 328 490 307 475 z m 439 145 b 406 118 353 91 306 91 b 240 91 179 135 179 211 b 179 265 213 301 257 330 z"},"_":{"x_min":0,"x_max":500,"ha":500,"o":"m 0 -125 l 500 -125 l 500 -75 l 0 -75 z"},"v":{"x_min":0,"x_max":556,"ha":556,"o":"m 7 505 l 192 0 l 356 0 l 538 505 l 395 505 l 279 162 l 165 505 z"},"O":{"x_min":0,"x_max":778,"ha":778,"o":"m 42 351 b 42 285 52 165 131 81 b 197 12 292 -18 387 -18 b 447 -18 564 -5 644 85 b 703 151 735 263 735 368 b 735 439 720 552 643 640 b 572 720 466 738 389 738 b 129 738 42 543 42 351 z m 204 356 b 204 438 216 516 257 566 b 286 603 332 627 390 627 b 464 627 525 588 555 499 b 570 455 573 405 573 370 b 573 255 548 199 524 163 b 495 118 452 96 389 96 b 317 96 280 124 258 154 b 215 210 204 287 204 356 z"},"(":{"x_min":0,"x_max":333,"ha":333,"o":"m 164 757 b 108 614 62 465 62 311 b 62 161 106 16 163 -123 l 272 -123 b 213 82 185 182 185 316 b 185 495 240 657 273 757 z"},"C":{"x_min":0,"x_max":667,"ha":667,"o":"m 634 487 b 634 631 523 727 365 727 b 162 727 34 575 34 346 b 34 167 115 -17 364 -17 b 430 -17 511 -2 575 64 b 633 124 637 191 640 234 l 477 234 b 474 138 412 97 347 97 b 196 97 196 302 196 345 b 196 494 244 614 359 614 b 464 614 473 512 476 487 z"},"W":{"x_min":0,"x_max":1000,"ha":1000,"o":"m 15 720 l 191 -2 l 367 -2 l 508 550 l 639 -2 l 811 -2 l 995 720 l 847 720 l 730 179 l 603 720 l 428 720 l 287 179 l 175 720 z"},"A":{"x_min":0,"x_max":722,"ha":722,"o":"m 266 723 l 5 0 l 153 0 l 207 156 l 493 156 l 545 0 l 701 0 l 450 723 z m 247 273 l 354 581 l 454 273 z"},"f":{"x_min":0,"x_max":333,"ha":333,"o":"m 75 0 l 222 0 l 222 400 l 316 400 l 316 505 l 222 505 l 222 564 b 222 590 222 630 298 630 b 310 630 314 629 329 627 l 329 730 b 287 735 259 735 249 735 b 105 735 75 663 75 574 l 75 505 l 0 505 l 0 400 l 75 400 z"},"Q":{"x_min":0,"x_max":778,"ha":778,"o":"m 761 111 b 699 114 632 110 599 104 b 633 136 708 209 708 373 b 708 610 569 737 382 737 b 137 737 34 553 34 356 b 34 240 82 -11 352 -11 b 369 -11 417 -8 466 -5 b 515 -3 565 0 583 0 b 630 0 716 -1 761 -2 z m 194 365 b 194 497 240 627 376 627 b 446 627 488 588 506 560 b 528 527 551 478 551 375 b 551 259 523 101 371 101 b 224 101 194 263 194 365 z"},"w":{"x_min":0,"x_max":889,"ha":889,"o":"m 5 505 l 170 0 l 333 0 l 439 374 l 543 0 l 704 0 l 877 505 l 730 505 l 631 124 l 525 505 l 362 505 l 255 124 l 162 505 z"},"-":{"x_min":0,"x_max":333,"ha":333,"o":"m 44 208 l 292 208 l 292 321 l 44 321 z"},"E":{"x_min":0,"x_max":611,"ha":611,"o":"m 74 0 l 569 0 l 569 120 l 229 120 l 229 315 l 537 315 l 537 433 l 229 433 l 229 605 l 558 605 l 558 723 l 74 723 z"},"s":{"x_min":0,"x_max":500,"ha":500,"o":"m 29 146 b 30 122 33 82 66 47 b 112 -1 174 -15 239 -15 b 396 -15 471 72 471 159 b 471 228 428 275 336 300 l 245 325 b 201 337 176 344 176 378 b 176 409 206 428 246 428 b 269 428 314 424 318 368 l 453 368 b 449 469 365 517 261 517 b 130 517 40 457 40 359 b 40 256 127 231 168 219 l 260 194 b 318 178 330 160 330 137 b 330 107 305 77 252 77 b 190 77 170 114 168 146 z"},">":{"x_min":0,"x_max":584,"ha":584,"o":"m 559 200 l 559 334 l 26 540 l 26 400 l 398 267 l 26 134 l 26 -7 z"},"l":{"x_min":0,"x_max":278,"ha":278,"o":"m 65 0 l 213 0 l 213 723 l 65 723 z"},"8":{"x_min":0,"x_max":556,"ha":556,"o":"m 174 366 b 148 357 116 347 82 314 b 52 285 31 246 31 192 b 31 80 129 -11 271 -11 b 408 -11 527 64 527 192 b 527 226 519 262 495 296 b 458 348 411 360 383 368 b 454 379 520 437 520 521 b 520 630 423 710 283 710 b 113 710 42 600 42 515 b 42 407 139 377 174 366 z m 281 423 b 226 423 191 464 191 513 b 191 566 232 600 282 600 b 329 600 375 570 375 513 b 375 457 332 423 281 423 z m 281 96 b 233 96 180 129 180 200 b 180 259 222 303 280 303 b 333 303 380 265 380 202 b 380 124 323 96 281 96 z"},"\\":{"x_min":0,"x_max":278,"ha":278,"o":"m 29 718 l 298 0 l 415 0 l 144 718 z"},"e":{"x_min":0,"x_max":556,"ha":556,"o":"m 523 215 b 525 257 527 331 493 400 b 447 494 361 522 289 522 b 234 522 186 506 147 480 b 62 421 42 323 42 241 b 42 160 61 92 107 44 b 160 -11 242 -19 285 -19 b 359 -19 425 1 462 40 b 503 83 508 126 510 150 l 375 150 b 361 94 324 80 287 80 b 184 80 184 182 184 215 z m 189 308 b 192 367 219 421 284 421 b 370 421 372 331 372 308 z"},"b":{"x_min":0,"x_max":611,"ha":611,"o":"m 60 0 l 203 0 b 206 31 207 55 208 71 b 254 -8 334 -10 360 -10 b 461 -10 571 56 571 245 b 571 415 474 512 351 512 b 325 512 258 510 208 444 l 208 721 l 60 721 z m 420 240 b 420 214 420 87 318 87 b 251 87 202 142 202 257 b 202 289 202 413 311 413 b 418 413 420 280 420 240 z"},"%":{"x_min":0,"x_max":889,"ha":889,"o":"m 50 569 b 50 461 92 379 210 379 b 380 379 380 529 380 579 b 380 673 356 762 217 762 b 51 762 50 621 50 569 z m 158 573 b 158 603 158 684 217 684 b 268 684 271 619 271 578 b 271 483 247 461 213 461 b 171 461 158 496 158 573 z m 510 182 b 510 74 551 -9 669 -9 b 840 -9 840 141 840 192 b 840 285 815 374 677 374 b 510 374 510 233 510 182 z m 617 185 b 617 216 617 296 676 296 b 727 296 731 231 731 190 b 731 95 707 73 673 73 b 630 73 617 109 617 185 z m 593 769 l 213 -12 l 288 -12 l 668 769 z"},"m":{"x_min":0,"x_max":944,"ha":944,"o":"m 68 0 l 217 0 l 217 297 b 217 331 217 411 310 411 b 392 411 393 339 393 300 l 393 0 l 542 0 l 542 253 b 542 328 544 411 633 411 b 710 411 718 351 718 297 l 718 0 l 867 0 l 867 285 b 867 329 869 390 842 434 b 831 454 790 515 688 515 b 636 515 568 502 526 421 b 516 445 483 516 367 516 b 266 516 227 462 211 440 l 206 505 l 63 505 b 66 473 68 442 68 410 z"},"#":{"x_min":0,"x_max":556,"ha":556,"o":"m -9 175 l 73 175 l 41 0 l 170 0 l 202 175 l 298 175 l 265 0 l 393 0 l 425 175 l 528 175 l 528 285 l 446 285 l 468 406 l 571 406 l 571 516 l 488 516 l 522 697 l 393 697 l 360 516 l 265 516 l 298 697 l 170 697 l 137 516 l 34 516 l 34 406 l 116 406 l 94 285 l -9 285 z m 222 285 l 245 406 l 340 406 l 317 285 z"},",":{"x_min":0,"x_max":278,"ha":278,"o":"m 102 133 l 28 -113 l 131 -113 l 250 133 z"},"n":{"x_min":0,"x_max":611,"ha":611,"o":"m 67 0 l 216 0 l 216 296 b 216 335 225 360 234 373 b 250 397 279 412 311 412 b 349 412 372 391 383 369 b 391 353 391 335 391 314 l 391 0 l 542 0 l 542 273 b 542 367 539 393 528 424 b 515 459 473 519 374 519 b 264 519 224 454 210 431 l 206 507 l 64 507 b 67 472 67 417 67 415 z"},"h":{"x_min":0,"x_max":611,"ha":611,"o":"m 69 0 l 218 0 l 217 309 b 217 388 270 412 312 412 b 395 412 395 331 395 302 l 395 0 l 542 0 l 542 307 b 542 373 527 419 509 444 b 485 475 437 512 362 512 b 270 512 233 460 216 436 l 216 722 l 69 722 z"},"z":{"x_min":0,"x_max":500,"ha":500,"o":"m 32 0 l 463 0 l 463 102 l 197 102 l 453 378 l 453 505 l 39 505 l 39 406 l 288 406 l 32 130 z"},"B":{"x_min":0,"x_max":667,"ha":667,"o":"m 68 0 l 338 0 b 366 0 464 0 520 29 b 576 57 626 114 626 199 b 626 275 583 355 473 375 l 473 377 b 515 388 550 420 555 426 b 592 460 597 507 597 534 b 597 576 582 646 516 688 b 461 722 380 722 338 722 l 68 722 z m 216 611 l 321 611 b 372 611 448 611 448 521 b 448 428 368 428 324 428 l 216 428 z m 216 316 l 305 316 b 379 316 472 316 472 213 b 472 116 392 116 321 116 l 216 116 z"},"K":{"x_min":0,"x_max":667,"ha":667,"o":"m 67 0 l 222 0 l 222 368 l 475 0 l 668 0 l 380 399 l 645 723 l 464 723 l 222 410 l 222 721 l 67 721 z"},"R":{"x_min":0,"x_max":667,"ha":667,"o":"m 60 0 l 218 0 l 218 292 l 354 292 b 380 292 418 292 432 251 b 442 223 464 40 471 0 l 642 0 b 634 12 628 20 620 52 b 615 72 609 107 598 192 b 585 286 577 348 468 358 b 503 368 619 400 619 535 b 619 582 601 635 556 674 b 498 724 417 724 337 723 l 60 723 z m 213 609 l 317 609 b 366 609 395 609 419 592 b 433 583 457 560 457 511 b 457 460 428 435 417 427 b 392 407 356 407 338 407 l 213 407 z"},"T":{"x_min":0,"x_max":611,"ha":611,"o":"m 229 0 l 385 0 l 385 603 l 600 603 l 600 723 l 14 723 l 14 603 l 229 603 z"},"P":{"x_min":0,"x_max":611,"ha":611,"o":"m 65 0 l 222 0 l 222 281 l 327 281 b 365 281 438 281 491 315 b 548 352 583 423 583 507 b 583 544 577 596 539 642 b 479 714 392 721 288 721 l 65 721 z m 218 604 l 296 604 b 340 604 423 604 423 506 b 423 396 330 396 280 396 l 218 396 z"},"|":{"x_min":0,"x_max":278,"ha":278,"o":"m 73 750 l 73 -250 l 205 -250 l 205 750 z"},"t":{"x_min":0,"x_max":389,"ha":389,"o":"m 362 104 b 344 102 334 101 312 101 b 246 101 246 130 245 176 l 245 404 l 365 404 l 365 502 l 245 502 l 245 655 l 98 601 l 98 502 l 1 502 l 1 404 l 98 404 l 98 127 b 98 85 98 -9 247 -9 b 271 -9 314 -6 362 7 z"},"M":{"x_min":0,"x_max":944,"ha":944,"o":"m 60 0 l 205 0 l 205 620 l 398 0 l 526 0 l 723 620 l 723 0 l 877 0 l 877 723 l 631 723 l 466 197 l 313 723 l 60 723 z"},"g":{"x_min":0,"x_max":611,"ha":611,"o":"m 405 503 l 400 436 b 385 458 351 508 259 508 b 114 508 43 386 43 258 b 43 136 111 10 256 10 b 292 10 345 17 392 79 b 391 2 391 -16 385 -41 b 375 -86 337 -107 293 -107 b 214 -107 207 -52 205 -37 l 63 -37 b 72 -190 213 -199 285 -199 b 382 -199 537 -181 537 5 l 537 378 b 537 429 540 463 544 503 z m 191 258 b 191 366 237 409 293 409 b 383 409 394 312 394 255 b 394 233 394 111 290 111 b 191 111 191 233 191 258 z"},"j":{"x_min":0,"x_max":278,"ha":278,"o":"m -2 -194 b 20 -198 40 -198 48 -198 b 174 -198 213 -140 213 -45 l 213 507 l 65 507 l 65 -8 b 65 -34 65 -97 -2 -94 z m 60 593 l 218 593 l 218 722 l 60 722 z"},"i":{"x_min":0,"x_max":278,"ha":278,"o":"m 60 593 l 218 593 l 218 722 l 60 722 z m 65 0 l 213 0 l 213 506 l 65 506 z"},"y":{"x_min":0,"x_max":556,"ha":556,"o":"m 14 505 l 208 -2 l 144 -192 l 293 -192 l 354 9 l 545 505 l 398 505 l 285 155 l 174 505 z"},"@":{"x_min":0,"x_max":975,"ha":975,"o":"m 773 135 b 652 42 551 40 506 40 b 319 40 183 156 183 348 b 183 563 339 680 517 680 b 642 680 788 618 788 442 b 788 322 721 245 670 245 b 653 245 636 256 636 280 b 636 298 643 322 649 341 l 709 547 l 610 547 l 597 502 b 593 512 588 523 574 536 b 552 556 519 563 492 563 b 378 563 293 443 293 326 b 293 229 351 173 427 173 b 466 173 522 187 560 258 b 561 246 563 229 577 211 b 598 185 630 179 653 179 b 769 179 857 296 857 437 b 857 636 697 738 519 738 b 304 738 118 591 118 352 b 118 133 276 -18 502 -18 b 603 -18 694 8 807 90 z m 411 311 b 411 400 463 491 516 491 b 549 491 565 467 565 444 b 565 440 555 363 528 305 b 518 283 498 245 461 245 b 413 245 411 301 411 311 z"},".":{"x_min":0,"x_max":278,"ha":278,"o":"m 74 0 l 201 0 l 201 133 l 74 133 z"},"p":{"x_min":0,"x_max":611,"ha":611,"o":"m 60 505 l 60 -194 l 211 -194 l 211 58 b 224 41 261 -7 352 -7 b 498 -7 572 120 572 263 b 572 417 493 515 362 515 b 338 515 254 514 208 433 l 204 505 z m 314 90 b 205 90 204 218 204 248 b 204 384 272 420 320 420 b 407 420 422 317 422 257 b 422 157 384 90 314 90 z"},"X":{"x_min":0,"x_max":722,"ha":722,"o":"m 30 723 l 267 374 l 13 0 l 179 0 l 352 272 l 513 0 l 703 0 l 451 375 l 689 723 l 523 723 l 367 477 l 221 723 z"},"*":{"x_min":0,"x_max":556,"ha":556,"o":"m 67 465 l 218 485 l 125 363 l 215 309 l 273 451 l 331 310 l 424 361 l 330 484 l 479 461 l 481 567 l 328 549 l 426 667 l 333 722 l 274 581 l 218 719 l 125 668 l 219 549 l 67 571 z"},"Y":{"x_min":0,"x_max":667,"ha":667,"o":"m 16 720 l 260 265 l 260 0 l 413 0 l 413 263 l 657 720 l 498 720 l 346 391 l 197 720 z"},"c":{"x_min":0,"x_max":500,"ha":500,"o":"m 477 326 b 476 463 365 515 271 515 b 204 515 35 483 35 253 b 35 172 55 105 99 54 b 145 2 204 -13 271 -13 b 334 -13 379 3 415 34 b 473 83 478 144 480 183 l 334 183 b 328 93 282 86 266 86 b 255 86 240 88 226 103 b 192 140 189 230 189 258 b 189 313 197 419 267 419 b 324 419 330 344 332 326 z"},"!":{"x_min":0,"x_max":389,"ha":389,"o":"m 244 197 l 257 723 l 123 723 l 141 197 z m 129 0 l 256 0 l 256 133 l 129 133 z"},"/":{"x_min":0,"x_max":444,"ha":444,"o":"m 300 718 l 29 0 l 146 0 l 415 718 z"},"[":{"x_min":0,"x_max":333,"ha":333,"o":"m 287 752 l 58 752 l 58 -123 l 287 -123 l 287 -30 l 178 -30 l 178 660 l 287 660 z"},"6":{"x_min":0,"x_max":556,"ha":556,"o":"m 519 525 b 516 653 416 707 311 707 b 284 707 211 704 150 658 b 55 588 37 443 37 303 b 37 220 37 -14 278 -14 b 356 -14 410 8 456 51 b 509 100 530 156 530 233 b 530 385 427 454 330 454 b 257 454 218 421 193 398 b 195 470 198 594 298 594 b 335 594 368 575 371 525 z m 287 98 b 238 98 192 134 192 220 b 192 328 268 343 293 343 b 343 343 383 300 383 223 b 383 128 330 98 287 98 z"},"r":{"x_min":0,"x_max":389,"ha":389,"o":"m 65 0 l 213 0 l 213 249 b 213 312 222 389 372 375 l 372 508 b 252 514 219 453 200 410 l 197 507 l 58 507 b 61 478 65 405 65 381 z"},"2":{"x_min":0,"x_max":556,"ha":556,"o":"m 25 0 l 515 0 l 515 116 b 492 115 480 115 373 113 b 294 112 282 111 181 109 b 483 352 511 445 511 517 b 511 625 427 707 275 707 b 190 707 116 681 76 631 b 35 580 35 528 35 500 l 188 500 b 189 520 196 602 276 602 b 328 602 359 566 359 513 b 359 481 350 459 311 412 b 274 367 238 335 206 306 l 25 141 z"},"{":{"x_min":0,"x_max":333,"ha":333,"o":"m 103 449 b 103 399 95 372 68 348 b 42 325 4 316 -15 314 l -15 228 b 103 210 103 145 103 93 l 103 58 b 103 -57 121 -89 153 -118 b 196 -159 255 -177 348 -181 l 348 -99 b 237 -93 237 -10 237 51 l 237 88 b 237 136 233 186 196 223 b 159 262 111 267 79 271 b 212 282 237 366 237 454 l 237 490 b 237 552 237 632 348 641 l 348 723 b 108 711 103 594 103 484 z"},"9":{"x_min":0,"x_max":556,"ha":556,"o":"m 33 170 b 33 -13 210 -13 249 -13 b 418 -13 518 71 518 366 b 518 478 512 706 272 706 b 118 706 25 607 25 477 b 25 394 69 258 240 258 b 271 258 316 261 366 306 b 369 210 361 102 257 102 b 215 102 188 128 184 170 z m 267 373 b 180 373 173 459 173 483 b 173 536 199 593 270 593 b 331 593 363 548 363 487 b 363 438 341 373 267 373 z"}," ":{"x_min":0,"x_max":278,"ha":278,"o":""},"I":{"x_min":0,"x_max":278,"ha":278,"o":"m 60 0 l 215 0 l 215 725 l 60 725 z"},"H":{"x_min":0,"x_max":722,"ha":722,"o":"m 67 0 l 222 0 l 222 317 l 497 317 l 497 0 l 652 0 l 652 723 l 495 723 l 495 434 l 222 434 l 222 723 l 67 723 z"},"4":{"x_min":0,"x_max":556,"ha":556,"o":"m 296 152 l 296 0 l 444 0 l 444 152 l 539 152 l 539 267 l 444 267 l 445 698 l 296 698 l 16 287 l 16 152 z m 306 525 b 305 507 304 457 304 448 l 304 264 l 128 264 z"},"~":{"x_min":0,"x_max":584,"ha":584,"o":"m 102 173 b 107 207 127 234 161 234 b 181 234 219 221 232 217 b 310 192 377 170 411 170 b 527 170 561 283 567 361 l 482 361 b 480 348 472 301 424 301 b 397 301 379 307 279 338 b 219 356 196 363 173 363 b 91 363 25 291 18 173 z"},"D":{"x_min":0,"x_max":722,"ha":722,"o":"m 65 0 l 290 0 b 363 0 393 3 420 8 b 557 33 676 149 676 371 b 676 474 644 588 553 655 b 466 719 344 720 304 720 l 65 721 z m 222 604 b 311 608 352 603 384 594 b 481 567 516 473 516 371 b 516 336 512 228 451 167 b 406 122 349 117 283 117 b 265 117 239 118 222 119 z"},"^":{"x_min":0,"x_max":584,"ha":584,"o":"m 51 264 l 189 264 l 289 536 l 392 264 l 530 264 l 349 697 l 232 697 z"},"0":{"x_min":0,"x_max":556,"ha":556,"o":"m 38 347 b 38 161 100 -11 279 -11 b 489 -11 526 202 526 364 b 526 495 499 563 463 616 b 437 655 379 708 281 708 b 57 708 38 440 38 347 z m 376 339 b 376 243 363 107 283 107 b 208 107 190 218 190 337 b 190 354 190 461 213 532 b 220 553 239 592 282 592 b 337 592 354 530 358 511 b 371 465 376 383 376 339 z"},"F":{"x_min":0,"x_max":556,"ha":556,"o":"m 69 0 l 224 0 l 224 308 l 514 308 l 514 428 l 224 428 l 224 606 l 535 606 l 535 722 l 69 722 z"},"`":{"x_min":0,"x_max":278,"ha":278,"o":"m 128 730 l -12 730 l 127 585 l 212 585 z"},"k":{"x_min":0,"x_max":556,"ha":556,"o":"m 67 0 l 214 0 l 214 275 l 370 0 l 545 0 l 361 288 l 534 508 l 367 508 l 214 297 l 214 723 l 67 723 z"},"u":{"x_min":0,"x_max":611,"ha":611,"o":"m 60 505 l 60 191 b 60 166 60 96 93 55 b 121 18 177 -13 245 -13 b 341 -13 379 45 394 67 l 399 0 l 543 0 b 541 14 540 23 539 37 b 539 50 538 63 536 172 l 536 505 l 384 505 l 384 250 b 384 164 384 93 289 93 b 210 93 210 160 210 204 l 210 505 z"},"]":{"x_min":0,"x_max":333,"ha":333,"o":"m 46 660 l 155 660 l 155 -30 l 46 -30 l 46 -123 l 275 -123 l 275 752 l 46 752 z"},"U":{"x_min":0,"x_max":778,"ha":778,"o":"m 72 721 l 72 289 b 72 222 74 166 109 111 b 177 2 309 -14 381 -14 b 527 -14 698 55 698 270 l 698 721 l 547 721 l 547 289 b 547 216 539 188 524 166 b 484 104 409 103 384 103 b 233 103 227 202 227 281 l 227 721 z"},"o":{"x_min":0,"x_max":611,"ha":611,"o":"m 42 248 b 42 71 156 -18 300 -18 b 483 -18 565 110 565 252 b 565 393 486 517 303 517 b 104 517 42 370 42 248 z m 194 247 b 194 293 195 418 303 418 b 401 418 414 325 414 258 b 414 124 370 85 305 85 b 232 85 194 134 194 247 z"},"N":{"x_min":0,"x_max":778,"ha":778,"o":"m 72 0 l 218 0 l 218 600 l 498 0 l 711 0 l 711 723 l 567 723 l 567 154 l 296 723 l 72 723 z"},"+":{"x_min":0,"x_max":584,"ha":584,"o":"m 225 0 l 359 0 l 359 202 l 558 202 l 558 331 l 359 331 l 359 533 l 225 533 l 225 331 l 26 331 l 26 202 l 225 202 z"},"G":{"x_min":0,"x_max":778,"ha":778,"o":"m 715 501 b 714 540 711 597 663 652 b 606 717 510 743 417 743 b 198 743 38 606 38 350 b 38 274 53 159 134 80 b 191 24 276 -16 441 -16 b 586 -16 660 9 705 24 l 705 385 l 410 385 l 410 265 l 550 265 l 550 113 b 533 108 507 99 432 99 b 346 99 298 121 262 161 b 209 218 202 306 202 355 b 202 466 237 630 413 630 b 447 630 504 622 534 574 b 552 546 553 520 554 501 z"},"q":{"x_min":0,"x_max":611,"ha":611,"o":"m 407 506 l 402 433 b 390 453 353 516 249 516 b 149 516 36 453 36 259 b 36 66 156 -7 258 -7 b 343 -7 383 41 398 59 l 398 -192 l 550 -192 l 550 409 b 550 429 553 497 553 506 z m 187 255 b 187 331 205 419 290 419 b 392 419 406 307 406 252 b 406 197 394 91 298 91 b 277 91 243 95 220 127 b 191 166 187 222 187 255 z"},"d":{"x_min":0,"x_max":611,"ha":611,"o":"m 399 443 b 386 461 348 512 257 512 b 125 512 34 408 34 241 b 34 83 114 -10 249 -10 b 271 -10 310 -8 347 16 b 378 36 388 55 398 73 l 402 0 l 552 0 b 550 19 548 52 548 82 l 548 722 l 399 722 z m 184 245 b 184 296 195 415 294 415 b 361 415 404 361 404 262 b 404 237 402 185 380 143 b 364 112 329 86 286 86 b 212 86 184 161 184 245 z"},"1":{"x_min":0,"x_max":556,"ha":556,"o":"m 95 454 b 171 485 229 521 258 543 l 258 0 l 409 0 l 409 698 l 280 698 b 222 656 160 621 95 593 z"},"5":{"x_min":0,"x_max":556,"ha":556,"o":"m 31 172 b 32 146 35 103 70 61 b 118 4 192 -15 265 -15 b 444 -15 514 119 514 238 b 514 378 420 460 308 460 b 231 460 198 429 176 410 l 185 583 l 476 583 l 476 697 l 53 697 l 37 284 l 182 280 b 187 296 204 350 271 350 b 338 350 364 292 364 225 b 364 133 315 94 261 94 b 191 94 178 156 179 172 z"}}}
